REM DIRINDEX 1\2,1\3,1\4
REM DIRNAME folder01,folder02,folder03,folder04
TITLE ""
FILE "DISC2Track02.mp3" MP3
  TRACK 01 AUDIO
    TITLE "0:"
    INDEX 01 00:00:00
  TRACK 02 AUDIO
    TITLE "4:cjc105_1740"
    INDEX 01 00:00:13
  TRACK 03 AUDIO
    TITLE "0:"
    INDEX 01 00:04:17
  TRACK 04 AUDIO
    TITLE "2:cjc105_1741"
    INDEX 01 00:04:62
  TRACK 05 AUDIO
    TITLE "3:cjc105_1742"
    INDEX 01 00:06:26
  TRACK 06 AUDIO
    TITLE "0:"
    INDEX 01 00:08:19
  TRACK 07 AUDIO
    TITLE "2:cjc105_1743"
    INDEX 01 00:08:26
  TRACK 08 AUDIO
    TITLE "3:cjc105_1744"
    INDEX 01 00:09:67
  TRACK 09 AUDIO
    TITLE "0:"
    INDEX 01 00:11:31
  TRACK 10 AUDIO
    TITLE "2:cjc105_1745"
    INDEX 01 00:11:42
  TRACK 11 AUDIO
    TITLE "3:cjc105_1746"
    INDEX 01 00:13:35
  TRACK 12 AUDIO
    TITLE "0:"
    INDEX 01 00:14:62
  TRACK 13 AUDIO
    TITLE "2:cjc105_1747"
    INDEX 01 00:14:74
  TRACK 14 AUDIO
    TITLE "3:cjc105_1748"
    INDEX 01 00:16:51
  TRACK 15 AUDIO
    TITLE "0:"
    INDEX 01 00:18:09
  TRACK 16 AUDIO
    TITLE "2:cjc105_1749"
    INDEX 01 00:18:19
  TRACK 17 AUDIO
    TITLE "3:cjc105_1750"
    INDEX 01 00:19:30
  TRACK 18 AUDIO
    TITLE "0:"
    INDEX 01 00:20:65
  TRACK 19 AUDIO
    TITLE "2:cjc105_1751"
    INDEX 01 00:21:02
  TRACK 20 AUDIO
    TITLE "3:cjc105_1752"
    INDEX 01 00:22:40
  TRACK 21 AUDIO
    TITLE "0:"
    INDEX 01 00:24:06
  TRACK 22 AUDIO
    TITLE "2:cjc105_1753"
    INDEX 01 00:24:16
  TRACK 23 AUDIO
    TITLE "3:cjc105_1754"
    INDEX 01 00:26:17
  TRACK 24 AUDIO
    TITLE "0:"
    INDEX 01 00:28:49
  TRACK 25 AUDIO
    TITLE "2:cjc105_1755"
    INDEX 01 00:28:60
  TRACK 26 AUDIO
    TITLE "3:cjc105_1756"
    INDEX 01 00:30:63
  TRACK 27 AUDIO
    TITLE "0:"
    INDEX 01 00:33:07
  TRACK 28 AUDIO
    TITLE "2:cjc105_1757"
    INDEX 01 00:33:21
  TRACK 29 AUDIO
    TITLE "3:cjc105_1758"
    INDEX 01 00:34:12
  TRACK 30 AUDIO
    TITLE "0:"
    INDEX 01 00:35:45
  TRACK 31 AUDIO
    TITLE "2:cjc105_1759"
    INDEX 01 00:35:55
  TRACK 32 AUDIO
    TITLE "3:cjc105_1760"
    INDEX 01 00:36:58
  TRACK 33 AUDIO
    TITLE "0:"
    INDEX 01 00:38:49
  TRACK 34 AUDIO
    TITLE "2:cjc105_1761"
    INDEX 01 00:38:59
  TRACK 35 AUDIO
    TITLE "3:cjc105_1762"
    INDEX 01 00:40:24
  TRACK 36 AUDIO
    TITLE "0:"
    INDEX 01 00:41:61
  TRACK 37 AUDIO
    TITLE "2:cjc105_1763"
    INDEX 01 00:42:00
  TRACK 38 AUDIO
    TITLE "3:cjc105_1764"
    INDEX 01 00:43:33
  TRACK 39 AUDIO
    TITLE "0:"
    INDEX 01 00:45:00
  TRACK 40 AUDIO
    TITLE "2:cjc105_1765"
    INDEX 01 00:45:14
  TRACK 41 AUDIO
    TITLE "3:cjc105_1766"
    INDEX 01 00:46:25
  TRACK 42 AUDIO
    TITLE "0:"
    INDEX 01 00:47:46
  TRACK 43 AUDIO
    TITLE "2:cjc105_1767"
    INDEX 01 00:47:58
  TRACK 44 AUDIO
    TITLE "3:cjc105_1768"
    INDEX 01 00:49:37
  TRACK 45 AUDIO
    TITLE "0:"
    INDEX 01 00:51:20
  TRACK 46 AUDIO
    TITLE "2:cjc105_1769"
    INDEX 01 00:51:32
  TRACK 47 AUDIO
    TITLE "3:cjc105_1770"
    INDEX 01 00:52:39
  TRACK 48 AUDIO
    TITLE "0:"
    INDEX 01 00:53:45
  TRACK 49 AUDIO
    TITLE "2:cjc105_1771"
    INDEX 01 00:53:55
  TRACK 50 AUDIO
    TITLE "3:cjc105_1772"
    INDEX 01 00:54:60
  TRACK 51 AUDIO
    TITLE "0:"
    INDEX 01 00:56:43
  TRACK 52 AUDIO
    TITLE "2:cjc105_1773"
    INDEX 01 00:56:67
  TRACK 53 AUDIO
    TITLE "3:cjc105_1774"
    INDEX 01 00:58:05
  TRACK 54 AUDIO
    TITLE "0:"
    INDEX 01 00:59:41
  TRACK 55 AUDIO
    TITLE "2:cjc105_1775"
    INDEX 01 00:59:53
  TRACK 56 AUDIO
    TITLE "3:cjc105_1776"
    INDEX 01 01:01:29
  TRACK 57 AUDIO
    TITLE "0:"
    INDEX 01 01:02:59
  TRACK 58 AUDIO
    TITLE "2:cjc105_1777"
    INDEX 01 01:02:73
  TRACK 59 AUDIO
    TITLE "3:cjc105_1778"
    INDEX 01 01:04:31
  TRACK 60 AUDIO
    TITLE "0:"
    INDEX 01 01:05:68
  TRACK 61 AUDIO
    TITLE "2:cjc105_1779"
    INDEX 01 01:06:04
  TRACK 62 AUDIO
    TITLE "3:cjc105_1780"
    INDEX 01 01:07:35
  TRACK 63 AUDIO
    TITLE "0:"
    INDEX 01 01:09:05
  TRACK 64 AUDIO
    TITLE "2:cjc105_1781"
    INDEX 01 01:09:18
  TRACK 65 AUDIO
    TITLE "3:cjc105_1782"
    INDEX 01 01:10:59
  TRACK 66 AUDIO
    TITLE "0:"
    INDEX 01 01:11:68
  TRACK 67 AUDIO
    TITLE "2:cjc105_1783"
    INDEX 01 01:12:07
  TRACK 68 AUDIO
    TITLE "3:cjc105_1784"
    INDEX 01 01:13:51
  TRACK 69 AUDIO
    TITLE "0:"
    INDEX 01 01:15:33
  TRACK 70 AUDIO
    TITLE "2:cjc105_1785"
    INDEX 01 01:15:42
  TRACK 71 AUDIO
    TITLE "3:cjc105_1786"
    INDEX 01 01:16:58
  TRACK 72 AUDIO
    TITLE "0:"
    INDEX 01 01:22:29
  TRACK 73 AUDIO
    TITLE "2:cjc105_1787"
    INDEX 01 01:22:39
  TRACK 74 AUDIO
    TITLE "3:cjc105_1788"
    INDEX 01 01:24:18
  TRACK 75 AUDIO
    TITLE "0:"
    INDEX 01 01:25:51
  TRACK 76 AUDIO
    TITLE "2:cjc105_1789"
    INDEX 01 01:25:64
  TRACK 77 AUDIO
    TITLE "3:cjc105_1790"
    INDEX 01 01:27:36
  TRACK 78 AUDIO
    TITLE "0:"
    INDEX 01 01:28:71
  TRACK 79 AUDIO
    TITLE "2:cjc105_1791"
    INDEX 01 01:29:05
  TRACK 80 AUDIO
    TITLE "3:cjc105_1792"
    INDEX 01 01:31:10
  TRACK 81 AUDIO
    TITLE "0:"
    INDEX 01 01:32:23
  TRACK 82 AUDIO
    TITLE "2:cjc105_1793"
    INDEX 01 01:32:33
  TRACK 83 AUDIO
    TITLE "3:cjc105_1794"
    INDEX 01 01:34:06
  TRACK 84 AUDIO
    TITLE "0:"
    INDEX 01 01:35:49
  TRACK 85 AUDIO
    TITLE "2:cjc105_1795"
    INDEX 01 01:35:63
  TRACK 86 AUDIO
    TITLE "3:cjc105_1796"
    INDEX 01 01:37:22
  TRACK 87 AUDIO
    TITLE "0:"
    INDEX 01 01:38:61
  TRACK 88 AUDIO
    TITLE "2:cjc105_1797"
    INDEX 01 01:39:00
  TRACK 89 AUDIO
    TITLE "3:cjc105_1798"
    INDEX 01 01:40:17
  TRACK 90 AUDIO
    TITLE "0:"
    INDEX 01 01:41:50
  TRACK 91 AUDIO
    TITLE "2:cjc105_1799"
    INDEX 01 01:41:59
  TRACK 92 AUDIO
    TITLE "3:cjc105_1800"
    INDEX 01 01:43:25
  TRACK 93 AUDIO
    TITLE "0:"
    INDEX 01 01:45:00
  TRACK 94 AUDIO
    TITLE "2:cjc105_1801"
    INDEX 01 01:45:10
  TRACK 95 AUDIO
    TITLE "3:cjc105_1802"
    INDEX 01 01:46:63
  TRACK 96 AUDIO
    TITLE "0:"
    INDEX 01 01:52:20
  TRACK 97 AUDIO
    TITLE "2:cjc105_1803"
    INDEX 01 01:52:28
  TRACK 98 AUDIO
    TITLE "3:cjc105_1804"
    INDEX 01 01:53:29
  TRACK 99 AUDIO
    TITLE "0:"
    INDEX 01 01:54:70
